# xmcd CD database file
#
# Track frame offsets:
#	150
#	23770
#	39757
#	58485
#
# Disc length: 1077 seconds
#
# Revision: 0
# Processed by: cddbd v1.5.1PL0 Copyright (c) Steve Scherf et al.
# Submitted via: CDex 1.51
#
DISCID=2b043304
DTITLE=Cool Drive Makers - アモレゴ
DYEAR=1900
DGENRE=JPop
TTITLE0=アモレゴ
TTITLE1=NANA
TTITLE2=うそつきのうた
TTITLE3=アモレゴ(radio edit)
EXTD=
EXTT0=
EXTT1=
EXTT2=
EXTT3=
PLAYORDER=
